<?xml version="1.0" encoding="utf-8"?>
<!-- Generator: Adobe Illustrator 18.0.0, SVG Export Plug-In . SVG Version: 6.00 Build 0)  -->
<!DOCTYPE svg PUBLIC "-//W3C//DTD SVG 1.1//EN" "http://www.w3.org/Graphics/SVG/1.1/DTD/svg11.dtd">
<svg version="1.1" id="Layer_1" xmlns="http://www.w3.org/2000/svg" xmlns:xlink="http://www.w3.org/1999/xlink" x="0px" y="0px"
	 viewBox="0 0 160 160" enable-background="new 0 0 160 160" xml:space="preserve">
<g>
	<g>
		<path fill="#3C2517" d="M119.6,64.5l11.3-7.8c0,0,0.9,27.4-12.3,21.2"/>
		<path fill="#3C2517" d="M40.4,64.5l-11.3-7.8c0,0-0.9,27.4,12.3,21.2"/>
	</g>
	<g>
		<g>
			<g>
				<g>
					<path fill="#3C2517" d="M96.5,95.2c0,0,20.6,31.5,15.9,41.6c0,0-2.7,4.9-6.8,2.2c-4.1-2.8,1.4-5.4,1.4-5.4s-3-0.1-2.7-2.1
						c0.3-2,3.1-2.9,3.1-2.9s-2.6-15.7-11.2-29.4"/>
				</g>
			</g>
			<g>
				<g>
					<path fill="#3C2517" d="M63.5,95.2c0,0-20.6,31.5-15.9,41.6c0,0,2.7,4.9,6.8,2.2c4.1-2.8-1.4-5.4-1.4-5.4s3-0.1,2.7-2.1
						c-0.3-2-3.1-2.9-3.1-2.9s2.6-15.7,11.2-29.4"/>
				</g>
			</g>
		</g>
		<g>
			<path fill="#3C2517" d="M56.2,160l13.1-3.2c-0.8-6.8-0.4-14.5,0.4-21h4.9c-0.2,13.5,2.2,24.3,2.2,24.3H56.2z"/>
			<path fill="#3C2517" d="M83.2,160c0,0,2.4-10.7,2.2-24.3h4.9c0.8,6.5,1.3,14.2,0.4,21l13.1,3.2H83.2z"/>
		</g>
		<polygon fill="#3C2517" points="100.8,136.2 59.2,136.2 60.1,127.9 64.6,87.4 95.4,87.4 99.9,127.9 		"/>
		<polygon fill="#603A17" points="94.2,111 90.7,96.8 80,96.8 69.3,96.8 65.8,111 68.9,111 68.5,122.3 75.9,119.6 80,129.9 
			84.1,119.6 91.5,122.3 91.1,111 		"/>
		<g>
			<path fill="#764E2A" d="M126.2,56.3c0,9.9-2.6,18.1-7.2,24.5c-8.2,11.6-22.6,17.6-39,17.6c-11.9,0-22.7-3.1-30.9-9.3
				c-2.2-1.6-4.1-3.4-5.9-5.5c-5.9-6.8-9.4-16-9.4-27.3c0-3.1,0.1-5.9,0.2-8.6c1.8-33.1,14.7-39.8,32-41.1c4.4-0.3,9.1-0.3,13.9-0.3
				c9.9,0,19.1,0,26.6,2.9C118.5,13.8,126.2,25.7,126.2,56.3z"/>
			<g>
				<g>
					<g>
						<circle fill="#FDF28E" cx="63.9" cy="63.2" r="6.5"/>
						<path fill="#1C0F2D" d="M66.3,63.2c0,1.3-1.1,2.4-2.4,2.4c-1.3,0-2.4-1.1-2.4-2.4c0-1.3,1.1-2.4,2.4-2.4c0.4,0,0.7,0.1,1,0.2
							c-0.4,0.1-0.7,0.5-0.7,0.9c0,0.5,0.4,1,1,1c0.4,0,0.8-0.3,0.9-0.7C66.2,62.5,66.3,62.8,66.3,63.2z"/>
					</g>
					<g>
						<circle fill="#FDF28E" cx="96.1" cy="63.2" r="6.5"/>
						<path fill="#1C0F2D" d="M98.6,63.2c0,1.3-1.1,2.4-2.4,2.4c-1.3,0-2.4-1.1-2.4-2.4c0-1.3,1.1-2.4,2.4-2.4c0.4,0,0.7,0.1,1,0.2
							c-0.4,0.1-0.7,0.5-0.7,0.9c0,0.5,0.4,1,1,1c0.4,0,0.8-0.3,0.9-0.7C98.5,62.5,98.6,62.8,98.6,63.2z"/>
					</g>
				</g>
			</g>
			<g>
				<rect x="85.7" y="45.1" fill="#3C2517" width="19.1" height="7.2"/>
				<rect x="55.2" y="45.1" fill="#3C2517" width="19.1" height="7.2"/>
			</g>
		</g>
		<g>
			<path fill="#171024" d="M102.2,73.4c0,0-3.3,9.9-13.7,13.7c-2.4,0.9-5.3,1.4-8.5,1.4c-3.3,0-6.1-0.6-8.5-1.4
				c-10.4-3.8-13.7-13.7-13.7-13.7H102.2z"/>
			<path fill="#F0494A" d="M88.5,87.1c-2.4,0.9-5.3,1.4-8.5,1.4c-3.3,0-6.1-0.6-8.5-1.4c1-3.8,4.4-6.6,8.5-6.6
				C84.1,80.5,87.5,83.3,88.5,87.1z"/>
			<g>
				<path fill="#FFFFFF" d="M62.3,73.4c0,0,2.4,5.3,3.8,5.3c1.4,0,3.8-5.3,3.8-5.3H62.3z"/>
				<path fill="#FFFFFF" d="M97.7,73.4c0,0-2.4,5.3-3.8,5.3c-1.4,0-3.8-5.3-3.8-5.3H97.7z"/>
			</g>
		</g>
	</g>
	<ellipse fill="#3C2517" cx="80" cy="67.3" rx="4.2" ry="2.3"/>
	<polygon fill="#673090" points="100.8,136.2 59.2,136.2 60.1,127.9 99.9,127.9 	"/>
	<g>
		<polygon fill="#673090" points="64.6,150.1 76.5,150.1 76.5,133.1 67.9,134.3 		"/>
		<polygon fill="#673090" points="95.4,150.1 83.5,150.1 83.5,133.1 92.1,134.3 		"/>
	</g>
	<path fill="#3C2517" d="M103.8,4.3l3.9-2.5v3.9l4.6-1.1l-3.2,4.6c0,0,14.4,5.3,18,27.5L122,34l-12.4,7.6l-3.4-8l-17.6,8L78,34
		l-34.8,7.6V36l-11.5,4.4c0,0-1.4-16.3,7.2-23.2l-5.1-4.9C33.8,12.2,63.3-8.8,103.8,4.3z"/>
</g>
</svg>
