<?xml version="1.0" encoding="utf-8"?>
<!-- Generator: Adobe Illustrator 18.0.0, SVG Export Plug-In . SVG Version: 6.00 Build 0)  -->
<!DOCTYPE svg PUBLIC "-//W3C//DTD SVG 1.1//EN" "http://www.w3.org/Graphics/SVG/1.1/DTD/svg11.dtd">
<svg version="1.1" id="Layer_1" xmlns="http://www.w3.org/2000/svg" xmlns:xlink="http://www.w3.org/1999/xlink" x="0px" y="0px"
	 viewBox="0 0 160 160" enable-background="new 0 0 160 160" xml:space="preserve">
<g>
	<g>
		<g>
			
				<rect x="38" y="85.3" transform="matrix(0.9265 -0.3763 0.3763 0.9265 -30.9775 21.7818)" fill="#A8AAAD" width="4.5" height="9.8"/>
			
				<rect x="42.1" y="85.8" transform="matrix(-0.9265 0.3763 -0.3763 -0.9265 121.6636 151.9719)" fill="#E7E7E7" width="7.9" height="4.2"/>
		</g>
		<g>
			
				<rect x="117.5" y="85.3" transform="matrix(-0.9265 -0.3763 0.3763 -0.9265 196.7218 218.804)" fill="#A8AAAD" width="4.5" height="9.8"/>
			
				<rect x="110.1" y="85.8" transform="matrix(0.9265 0.3763 -0.3763 0.9265 41.4404 -36.4408)" fill="#E7E7E7" width="7.9" height="4.2"/>
		</g>
	</g>
	<g>
		<path fill="#12A84B" d="M120.4,62.4c0,0,4.5-8.4,11.5-7.9c9.3,0.6,0.9,28-12.6,21.7"/>
		<path fill="#12A84B" d="M39.6,62.4c0,0-4.5-8.4-11.5-7.9c-9.3,0.6-0.9,28,12.6,21.7"/>
	</g>
	<g>
		<g>
			<g>
				<g>
					<path fill="#70BF50" d="M96.9,95.9c0,0,21.1,32.2,16.3,42.5c0,0-2.8,5-7,2.2c-4.2-2.8,1.4-5.5,1.4-5.5s-3.1-0.1-2.8-2.2
						c0.3-2,3.2-3,3.2-3s-2.7-16-11.5-30.1"/>
					<polygon fill="#FFFFFF" points="105.9,126.4 106.5,129 114.3,125.7 111.7,121.8 					"/>
					<polygon fill="#171024" points="112.9,121.7 105.4,127.5 94.8,101.9 96.1,91.1 					"/>
				</g>
			</g>
			<g>
				<g>
					<path fill="#70BF50" d="M63.1,95.9c0,0-21.1,32.2-16.3,42.5c0,0,2.8,5,7,2.2c4.2-2.8-1.4-5.5-1.4-5.5s3.1-0.1,2.8-2.2
						c-0.3-2-3.2-3-3.2-3s2.7-16,11.5-30.1"/>
					<polygon fill="#FFFFFF" points="54.1,126.4 53.5,129 45.7,125.7 48.3,121.8 					"/>
					<polygon fill="#171024" points="47.1,121.7 54.6,127.5 65.2,101.9 63.9,91.1 					"/>
				</g>
			</g>
		</g>
		<g>
			<path fill="#171024" d="M55.7,160l13.4-3.3c-0.9-7-0.4-14.9,0.4-21.5h5C74.3,149,76.7,160,76.7,160H55.7z"/>
			<path fill="#171024" d="M83.3,160c0,0,2.4-11,2.2-24.8h5c0.8,6.7,1.3,14.6,0.4,21.5l13.4,3.3H83.3z"/>
		</g>
		<polygon fill="#200C3F" points="101.2,135.7 58.8,135.7 64.3,85.8 95.7,85.8 		"/>
		<polygon fill="#FFFFFF" points="80,96.3 74.2,96.3 80,125.2 85.8,96.3 		"/>
		<g>
			<path fill="#5CBB58" d="M127.2,54c0,10.1-2.7,18.5-7.4,25.1c-8.4,11.9-23.1,18-39.8,18c-12.2,0-23.2-3.2-31.6-9.5
				c-2.2-1.6-4.2-3.5-6-5.6c-6-7-9.6-16.3-9.6-27.9c0-3.1,0.1-6,0.2-8.8c1.9-33.8,15.1-40.6,32.8-42C70.3,2.8,75,2.8,80,2.8
				c10.1,0,19.5,0,27.2,3C119.3,10.6,127.2,22.7,127.2,54z"/>
			<path fill="#50B853" d="M127.2,54c0,10.1-2.7,18.5-7.4,25.1L65.8,3.2C70.3,2.8,75,2.8,80,2.8c10.1,0,19.5,0,27.2,3
				C119.3,10.6,127.2,22.7,127.2,54z"/>
			<g>
				<g>
					<g>
						<circle fill="#FDF28E" cx="63.5" cy="61.1" r="6.6"/>
						<path fill="#1C0F2D" d="M66,61.1c0,1.4-1.1,2.5-2.5,2.5c-1.4,0-2.5-1.1-2.5-2.5c0-1.4,1.1-2.5,2.5-2.5c0.4,0,0.7,0.1,1,0.2
							c-0.4,0.1-0.7,0.5-0.7,0.9c0,0.5,0.4,1,1,1c0.5,0,0.8-0.3,0.9-0.7C65.9,60.3,66,60.7,66,61.1z"/>
					</g>
					<g>
						<circle fill="#FDF28E" cx="96.5" cy="61.1" r="6.6"/>
						<path fill="#1C0F2D" d="M99,61.1c0,1.4-1.1,2.5-2.5,2.5S94,62.4,94,61.1c0-1.4,1.1-2.5,2.5-2.5c0.4,0,0.7,0.1,1,0.2
							c-0.4,0.1-0.7,0.5-0.7,0.9c0,0.5,0.4,1,1,1c0.5,0,0.8-0.3,0.9-0.7C98.9,60.3,99,60.7,99,61.1z"/>
					</g>
				</g>
			</g>
			<g>
				<rect x="85.8" y="51.2" fill="#171024" width="19.5" height="7.4"/>
				<rect x="54.7" y="51.2" fill="#171024" width="19.5" height="7.4"/>
			</g>
		</g>
		<g>
			<path fill="#171024" d="M102.7,71.4c0,0-3.4,10.1-14,14c-2.5,0.9-5.4,1.5-8.7,1.5c-3.3,0-6.2-0.6-8.7-1.5c-10.6-3.9-14-14-14-14
				H102.7z"/>
			<path fill="#F0494A" d="M88.7,85.5c-2.5,0.9-5.4,1.5-8.7,1.5c-3.3,0-6.2-0.6-8.7-1.5c1-3.9,4.5-6.7,8.7-6.7
				C84.2,78.7,87.7,81.6,88.7,85.5z"/>
			<g>
				<path fill="#FFFFFF" d="M61.9,71.4c0,0-1.5,5.4,3.8,5.4c6,0,3.8-5.4,3.8-5.4H61.9z"/>
			</g>
			<g>
				<path fill="#FFFFFF" d="M90.1,71.4c0,0-1.5,5.4,3.8,5.4c6,0,3.8-5.4,3.8-5.4H90.1z"/>
			</g>
			<g>
				<path fill="#FFFFFF" d="M71.6,71.4c0,0-1,3.6,2.5,3.6c3.9,0,2.5-3.6,2.5-3.6H71.6z"/>
			</g>
		</g>
		<polygon fill="#171024" points="66.2,95.6 68.6,109.3 71.3,109.3 68.6,113.2 80,125.2 74.2,96.8 		"/>
		<polygon fill="#171024" points="93.8,95.6 91.4,109.3 88.7,109.3 91.4,113.2 80,125.2 85.8,96.8 		"/>
	</g>
	<rect x="75.9" y="46.3" fill="#12A84B" width="8.3" height="21.4"/>
	<path fill="#70BF50" d="M107.2,5.8L33,45.2C35.4,2.8,55.5,2.8,80,2.8C90.1,2.8,99.5,2.8,107.2,5.8z"/>
	<rect x="45.5" y="34.7" transform="matrix(0.9189 -0.3946 0.3946 0.9189 -11.3187 21.4425)" fill="#171024" width="2" height="7"/>
	<rect x="58.2" y="27.9" transform="matrix(0.9187 -0.3949 0.3949 0.9187 -7.5947 25.9398)" fill="#171024" width="2" height="7"/>
	<rect x="71" y="21.1" transform="matrix(0.9189 -0.3946 0.3946 0.9189 -3.8671 30.3935)" fill="#171024" width="2" height="7"/>
	<path fill="#171024" d="M118.2,6.6C112.1,1.7,97.8,0,80,0C62.2,0,47.9,1.7,41.8,6.6c-10.5,8.2-8.4,17.3-8.4,17.3l7.4-8l6.1,5.4
		l5.8-5.4l4.9,5.4l6.9-5.4l5.7,5.4l5.3-5.4l4.6,6.1l4.6-6.1l5.3,5.4l5.7-5.4l6.9,5.4l4.9-5.4l5.8,5.4l6.1-5.4l7.4,8
		C126.6,23.9,128.7,14.8,118.2,6.6z"/>
</g>
</svg>
