<?xml version="1.0" encoding="utf-8"?>
<!-- Generator: Adobe Illustrator 18.0.0, SVG Export Plug-In . SVG Version: 6.00 Build 0)  -->
<!DOCTYPE svg PUBLIC "-//W3C//DTD SVG 1.1//EN" "http://www.w3.org/Graphics/SVG/1.1/DTD/svg11.dtd">
<svg version="1.1" id="Layer_1" xmlns="http://www.w3.org/2000/svg" xmlns:xlink="http://www.w3.org/1999/xlink" x="0px" y="0px"
	 viewBox="0 0 160 160" enable-background="new 0 0 160 160" xml:space="preserve">
<g>
	<polygon fill="#673090" points="94.5,91.7 81.6,91.7 78.4,91.7 65.5,91.7 52.1,147.7 78.4,147.7 81.6,147.7 107.9,147.7 	"/>
	<g>
		<path fill="#29A590" d="M134.6,37.7c0,0,11.6,43.1-18.1,39.7L134.6,37.7z"/>
		<path fill="#29A590" d="M25.4,37.7c0,0-11.6,43.1,18.1,39.7L25.4,37.7z"/>
	</g>
	<g>
		<g>
			<g>
				<path fill="#56C2B4" d="M96.5,95.6c0,0,20.7,31.6,16,41.7c0,0-2.7,4.9-6.9,2.2c-4.1-2.8,1.4-5.4,1.4-5.4s-3-0.1-2.7-2.1
					c0.3-2,3.1-2.9,3.1-2.9s-2.6-15.7-11.2-29.5"/>
				<polygon fill="#FFFFFF" points="105.4,125.5 106,128.1 113.7,124.9 111.1,121 				"/>
				<polygon fill="#171024" points="112.3,120.9 104.9,126.6 94.5,101.4 95.8,90.9 				"/>
			</g>
		</g>
		<g>
			<g>
				<path fill="#56C2B4" d="M63.5,95.6c0,0-20.7,31.6-16,41.7c0,0,2.7,4.9,6.9,2.2c4.1-2.8-1.4-5.4-1.4-5.4s3-0.1,2.7-2.1
					c-0.3-2-3.1-2.9-3.1-2.9s2.7-15.7,11.2-29.5"/>
				<polygon fill="#FFFFFF" points="54.6,125.5 54,128.1 46.3,124.9 48.9,121 				"/>
				<polygon fill="#171024" points="47.7,120.9 55.1,126.6 65.5,101.4 64.2,90.9 				"/>
			</g>
		</g>
	</g>
	<g>
		<path fill="#171024" d="M56.1,158.5l13.1-3.2c-0.9-6.8-0.4-14.6,0.4-21.1h4.9c-0.2,13.6,2.2,24.3,2.2,24.3H56.1z"/>
		<path fill="#171024" d="M83.2,158.5c0,0,2.4-10.8,2.2-24.3h4.9c0.8,6.5,1.3,14.3,0.4,21.1l13.1,3.2H83.2z"/>
	</g>
	<polygon fill="#1C0F2D" points="100.8,134.7 59.2,134.7 64.6,85.7 95.4,85.7 	"/>
	<path fill="#FFFFFF" d="M68.3,93.2c0,0,7.4,33.4,11.7,33.4c4.3,0,11.7-33.4,11.7-33.4H68.3z"/>
	<path fill="#1C0F2D" d="M83.9,105c3.9-1.5-1.9-9.3-1.9-9.3H80h-2.1c0,0-5.7,7.8-1.9,9.3c0,0-6.8,10.8,3.9,10.8
		C90.8,115.8,83.9,105,83.9,105z"/>
	<g>
		<path fill="#56C2B4" d="M126.3,54.5c0,27.7-20.7,42.2-46.3,42.2c-11.9,0-22.8-3.2-31-9.3c-2.2-1.6-4.1-3.5-5.9-5.5
			c-5.9-6.8-9.4-16-9.4-27.4C33.7,26.8,54.4,4.3,80,4.3C105.6,4.3,126.3,26.8,126.3,54.5z"/>
		<g>
			<g>
				<g>
					<circle fill="#FDF28E" cx="66.4" cy="61.4" r="6.5"/>
					<path fill="#1C0F2D" d="M68.8,61.4c0,1.3-1.1,2.4-2.4,2.4c-1.3,0-2.4-1.1-2.4-2.4c0-1.3,1.1-2.4,2.4-2.4c0.4,0,0.7,0.1,1,0.2
						c-0.4,0.1-0.7,0.5-0.7,0.9c0,0.5,0.4,1,1,1c0.4,0,0.8-0.3,0.9-0.7C68.7,60.7,68.8,61.1,68.8,61.4z"/>
				</g>
				<g>
					<circle fill="#FDF28E" cx="93.6" cy="61.4" r="6.5"/>
					<path fill="#1C0F2D" d="M96.1,61.4c0,1.3-1.1,2.4-2.4,2.4c-1.3,0-2.4-1.1-2.4-2.4c0-1.3,1.1-2.4,2.4-2.4c0.4,0,0.7,0.1,1,0.2
						c-0.4,0.1-0.7,0.5-0.7,0.9c0,0.5,0.4,1,1,1c0.4,0,0.8-0.3,0.9-0.7C96,60.7,96.1,61.1,96.1,61.4z"/>
				</g>
			</g>
		</g>
	</g>
	<path fill="#171024" d="M80.1,1.5L80.1,1.5c0,0-0.1,0-0.1,0c0,0-0.1,0-0.1,0v0C16.5,1.7,35.6,71.6,35.6,71.6h5.6
		c0,0-1-37.7,12.3-47c12.3-8.5,24.6-1.3,26.4-0.2v0.2c0,0,0,0,0.1-0.1c0.1,0,0.1,0.1,0.1,0.1v-0.2c1.8-1.2,14.1-8.4,26.4,0.2
		c13.3,9.2,12.3,47,12.3,47h5.6C124.4,71.6,143.5,1.7,80.1,1.5z"/>
	<g>
		<path fill="#171024" d="M58.2,51.3h15.2C73.4,51.3,66.6,41.4,58.2,51.3z"/>
		<path fill="#171024" d="M86.6,51.3h15.2C101.8,51.3,95,41.4,86.6,51.3z"/>
	</g>
	<polygon fill="#29A590" points="80,47.4 74.9,67.1 80,70.6 85.1,67.1 	"/>
	<g>
		<path fill="#171024" d="M102.3,71.6c0,0-3.3,9.9-13.7,13.7c-2.4,0.9-5.3,1.4-8.5,1.4c-3.3,0-6.1-0.6-8.5-1.4
			c-10.4-3.8-13.7-13.7-13.7-13.7H102.3z"/>
		<path fill="#F0494A" d="M88.5,85.3c-2.4,0.9-5.3,1.4-8.5,1.4c-3.3,0-6.1-0.6-8.5-1.4c1-3.8,4.4-6.6,8.5-6.6
			C84.1,78.7,87.6,81.6,88.5,85.3z"/>
		<g>
			<path fill="#FFFFFF" d="M62.3,71.6c0,0,2.4,5.3,3.8,5.3c1.4,0,3.8-5.3,3.8-5.3H62.3z"/>
			<path fill="#FFFFFF" d="M97.7,71.6c0,0-2.4,5.3-3.8,5.3c-1.4,0-3.8-5.3-3.8-5.3H97.7z"/>
		</g>
	</g>
</g>
</svg>
