<?xml version="1.0" encoding="utf-8"?>
<!-- Generator: Adobe Illustrator 18.0.0, SVG Export Plug-In . SVG Version: 6.00 Build 0)  -->
<!DOCTYPE svg PUBLIC "-//W3C//DTD SVG 1.1//EN" "http://www.w3.org/Graphics/SVG/1.1/DTD/svg11.dtd">
<svg version="1.1" id="Layer_1" xmlns="http://www.w3.org/2000/svg" xmlns:xlink="http://www.w3.org/1999/xlink" x="0px" y="0px"
	 viewBox="0 0 160 160" enable-background="new 0 0 160 160" xml:space="preserve">
<g>
	<path fill="#010101" d="M119.2,65.6H80.6h-1.1H40.8c0,0,2,19-14,39.1l15.1,4.6l5.2-4.6l0.3,6.2c0,0,17.1,7.5,32.6,7.5
		c20.1,0,32.6-7.5,32.6-7.5l0.3-6.2l5.2,4.6l15.1-4.6C117.3,84.6,119.2,65.6,119.2,65.6z"/>
	<g>
		<path fill="#019547" d="M129.8,49.9c0,0,10.5,39.3-16.5,36.2L129.8,49.9z"/>
		<path fill="#019547" d="M30.2,49.9c0,0-10.5,39.3,16.5,36.2L30.2,49.9z"/>
	</g>
	<g>
		<g>
			<g>
				<path fill="#3DB54A" d="M95.1,102.7c0,0,18.9,28.8,14.6,38c0,0-2.5,4.5-6.3,2c-3.8-2.5,1.3-4.9,1.3-4.9s-2.7-0.1-2.5-1.9
					c0.3-1.8,2.8-2.7,2.8-2.7s-2.4-14.3-10.2-26.9"/>
				<polygon fill="#FFFFFF" points="103.1,129.9 103.7,132.3 110.7,129.4 108.4,125.8 				"/>
				<polygon fill="#171024" points="109.4,125.7 102.7,130.9 93.2,108 94.4,98.4 				"/>
			</g>
		</g>
		<g>
			<g>
				<path fill="#3DB54A" d="M64.9,102.7c0,0-18.9,28.8-14.6,38c0,0,2.5,4.5,6.3,2c3.8-2.5-1.3-4.9-1.3-4.9s2.7-0.1,2.5-1.9
					c-0.2-1.8-2.8-2.7-2.8-2.7s2.4-14.3,10.2-26.9"/>
				<polygon fill="#FFFFFF" points="56.9,129.9 56.3,132.3 49.3,129.4 51.6,125.8 				"/>
				<polygon fill="#171024" points="50.6,125.7 57.3,130.9 66.8,108 65.6,98.4 				"/>
			</g>
		</g>
	</g>
	<g>
		<path fill="#171024" d="M58.2,160l12-2.9c-0.8-6.2-0.3-13.3,0.4-19.2h4.5c-0.2,12.4,2,22.2,2,22.2H58.2z"/>
		<path fill="#171024" d="M82.9,160c0,0,2.2-9.8,2-22.2h4.5c0.7,6,1.2,13,0.4,19.2l12,2.9H82.9z"/>
	</g>
	<polygon fill="#1C0F2D" points="99,151.8 61,151.8 66,93.6 94,93.6 	"/>
	<path fill="#FFFFFF" d="M69.3,100.5c0,0,6.7,15.2,10.7,15.2c4,0,10.7-15.2,10.7-15.2H69.3z"/>
	<g>
		<path fill="#8EC641" d="M122.2,65.2c0,25.3-18.9,38.5-42.2,38.5c-10.9,0-20.8-2.9-28.3-8.5c-2-1.5-3.8-3.1-5.4-5
			c-5.4-6.2-8.6-14.6-8.6-25c0-25.3,18.9-45.8,42.2-45.8C103.3,19.4,122.2,39.9,122.2,65.2z"/>
		<g>
			<g>
				<g>
					<circle fill="#FDF28E" cx="67.6" cy="71.5" r="5.9"/>
					<path fill="#1C0F2D" d="M69.8,71.5c0,1.2-1,2.2-2.2,2.2c-1.2,0-2.2-1-2.2-2.2s1-2.2,2.2-2.2c0.3,0,0.6,0.1,0.9,0.2
						c-0.4,0.1-0.7,0.4-0.7,0.8c0,0.5,0.4,0.9,0.9,0.9c0.4,0,0.8-0.3,0.8-0.7C69.7,70.9,69.8,71.2,69.8,71.5z"/>
				</g>
				<g>
					<circle fill="#FDF28E" cx="92.4" cy="71.5" r="5.9"/>
					<path fill="#1C0F2D" d="M94.6,71.5c0,1.2-1,2.2-2.2,2.2c-1.2,0-2.2-1-2.2-2.2s1-2.2,2.2-2.2c0.3,0,0.6,0.1,0.9,0.2
						c-0.4,0.1-0.7,0.4-0.7,0.8c0,0.5,0.4,0.9,0.9,0.9c0.4,0,0.8-0.3,0.8-0.7C94.6,70.9,94.6,71.2,94.6,71.5z"/>
				</g>
			</g>
		</g>
	</g>
	<g>
		<g>
			<path fill="#171024" d="M85.8,62.3h13.8C99.6,62.3,87.8,57.7,85.8,62.3z"/>
		</g>
		<g>
			<path fill="#171024" d="M74.2,62.3H60.4C60.4,62.3,72.2,57.7,74.2,62.3z"/>
		</g>
	</g>
	<g>
		<path fill="#171024" d="M100.3,80.8c0,0-3,9.1-12.5,12.5c-2.2,0.8-4.8,1.3-7.8,1.3c-3,0-5.6-0.5-7.8-1.3
			c-9.5-3.5-12.5-12.5-12.5-12.5H100.3z"/>
		<path fill="#F0494A" d="M87.8,93.3c-2.2,0.8-4.8,1.3-7.8,1.3c-3,0-5.6-0.5-7.8-1.3c0.9-3.5,4-6,7.8-6
			C83.7,87.3,86.9,89.9,87.8,93.3z"/>
	</g>
	<polygon fill="#019547" points="80,88 75.3,70 80,66.9 84.7,70 	"/>
	<g>
		<path fill="#FFFFFF" d="M64.9,80.8c0,0-0.8,3.9,1.2,4.6c2,0.7,2.1-4.6,2.1-4.6H64.9z"/>
		<path fill="#FFFFFF" d="M95.1,80.8c0,0,0.8,3.9-1.2,4.6c-2,0.7-2.1-4.6-2.1-4.6H95.1z"/>
		<path fill="#FFFFFF" d="M92.2,80.8c0,0,0.8,3.9-1.2,4.6c-2,0.7-2.1-4.6-2.1-4.6H92.2z"/>
	</g>
	<circle fill="#FFFFFF" cx="80" cy="120.9" r="1.4"/>
	<circle fill="#FFFFFF" cx="80" cy="127.2" r="1.4"/>
	<path fill="#1C0F2D" d="M41.2,49c0,0,4.5-38.2,36.9-47c32.4-8.9,47.8,14.9,47.8,14.9h-15.2c0,0,7.8,16.4,6.6,32.1H41.2z"/>
	<g>
		<path fill="#010101" d="M39.8,51.1c0,0-9.1,19.3,3.5,36.9l6-36.9H39.8z"/>
		<path fill="#010101" d="M120.2,51.1c0,0,9.1,19.3-3.5,36.9l-6-36.9H120.2z"/>
	</g>
	<path fill="#1C0F2D" d="M21.7,53.3h116.5C138.3,53.3,80,15.2,21.7,53.3z"/>
	<rect x="41.7" y="32.8" fill="#F15B2B" width="76.6" height="10.7"/>
</g>
</svg>
