<?xml version="1.0" encoding="UTF-8" standalone="no"?>
<svg width="37px" height="32px" viewBox="0 0 37 32" version="1.1" xmlns="http://www.w3.org/2000/svg" xmlns:xlink="http://www.w3.org/1999/xlink">
    <!-- Generator: Sketch 39 (31667) - http://www.bohemiancoding.com/sketch -->
    <title>cart copy</title>
    <desc>Created with Sketch.</desc>
    <defs></defs>
    <g id="Home" stroke="none" stroke-width="1" fill="none" fill-rule="evenodd">
        <g id="Guide-1366-HOME_1" transform="translate(-232.000000, -271.000000)" fill="#2890E3">
            <path d="M239.119238,275.874667 L238.613333,272.827048 L236.788571,272.827048 C236.518095,271.779429 235.57181,271 234.437333,271 C233.092571,271 232,272.092571 232,273.437333 C232,274.782857 233.092571,275.874667 234.437333,275.874667 C235.57181,275.874667 236.518095,275.095238 236.788571,274.047619 L237.577143,274.047619 L237.88419,275.874667 L237.865905,275.874667 L238,276.583238 L238,276.586286 L239.562667,284.737905 L240.196571,288.065143 L240.199619,288.065143 L241.014857,292.342476 C239.511619,292.455238 238.259048,293.613333 238.110476,295.071619 C238.023619,295.925714 238.303238,296.782857 238.88381,297.422857 C239.461333,298.062857 240.285714,298.428571 241.142857,298.428571 L242.360381,298.428571 C242.360381,300.446095 244.003048,302.086476 246.017524,302.086476 C248.03581,302.086476 249.675429,300.446095 249.675429,298.428571 L256.380952,298.428571 C256.380952,300.446095 258.020571,302.086476 260.038857,302.086476 C262.053333,302.086476 263.693714,300.446095 263.693714,298.428571 L266.134095,298.428571 C266.470095,298.428571 266.741333,298.155048 266.741333,297.818286 C266.741333,297.482286 266.470095,297.208 266.134095,297.208 L263.481905,297.208 C262.979048,295.791619 261.62819,294.770667 260.038857,294.770667 C258.449524,294.770667 257.097905,295.791619 256.592,297.208 L249.461333,297.208 C248.958476,295.791619 247.606857,294.770667 246.017524,294.770667 C244.42819,294.770667 243.077333,295.791619 242.574476,297.208 L241.142857,297.208 C240.630857,297.208 240.137143,296.98781 239.788952,296.60381 C239.434667,296.214476 239.270857,295.714667 239.32419,295.193524 C239.416381,294.273905 240.265143,293.553905 241.258667,293.553905 L241.770667,293.553905 L245.506286,293.550857 L252.112762,293.550857 L252.112762,293.54781 L263.086476,293.54781 L263.086476,293.544762 L265.539048,293.544762 C267.214476,293.544762 268.577524,292.181714 268.577524,290.506286 L268.577524,275.869333 L239.119238,275.874667 Z M234.437333,274.657905 C233.764571,274.657905 233.220571,274.110095 233.220571,273.437333 C233.220571,272.764571 233.764571,272.220571 234.437333,272.220571 C235.110095,272.220571 235.657905,272.764571 235.657905,273.437333 C235.657905,274.110095 235.110095,274.657905 234.437333,274.657905 L234.437333,274.657905 Z M260.038857,295.991238 C261.383619,295.991238 262.47619,297.083048 262.47619,298.428571 C262.47619,299.774095 261.383619,300.865905 260.038857,300.865905 C258.693333,300.865905 257.601524,299.774095 257.601524,298.428571 C257.601524,297.083048 258.693333,295.991238 260.038857,295.991238 L260.038857,295.991238 Z M246.017524,295.991238 C247.363048,295.991238 248.458667,297.083048 248.458667,298.428571 C248.458667,299.774095 247.363048,300.865905 246.017524,300.865905 C244.67581,300.865905 243.58019,299.774095 243.58019,298.428571 C243.58019,297.083048 244.67581,295.991238 246.017524,295.991238 L246.017524,295.991238 Z M267.36,281.363429 L263.086476,281.363429 L263.086476,277.089143 L267.36,277.086095 L267.36,281.363429 Z M257.601524,292.327238 L261.865905,292.327238 L261.865905,288.06819 L257.601524,288.06819 L257.601524,292.327238 Z M257.601524,286.848381 L261.865905,286.848381 L261.865905,282.58019 L257.601524,282.58019 L257.601524,286.848381 Z M246.62781,292.330286 L250.896,292.330286 L250.896,288.065143 L246.62781,288.065143 L246.62781,292.330286 Z M246.62781,286.848381 L250.896,286.848381 L250.896,282.58019 L246.62781,282.58019 L246.62781,286.848381 Z M240.390095,282.58019 L245.411048,282.58019 L245.411048,286.848381 L241.208381,286.848381 L240.390095,282.58019 Z M257.601524,281.363429 L261.865905,281.363429 L261.865905,277.095238 L257.601524,277.095238 L257.601524,281.363429 Z M256.380952,281.363429 L252.112762,281.363429 L252.112762,277.09219 L256.380952,277.089143 L256.380952,281.363429 Z M246.62781,281.363429 L250.896,281.363429 L250.896,277.095238 L246.62781,277.095238 L246.62781,281.363429 Z M252.112762,286.848381 L256.380952,286.848381 L256.380952,282.58019 L252.112762,282.58019 L252.112762,286.848381 Z M263.086476,286.848381 L267.350857,286.848381 L267.350857,282.58019 L263.086476,282.58019 L263.086476,286.848381 Z M245.411048,277.095238 L245.411048,281.363429 L240.157714,281.363429 L239.339429,277.095238 L245.411048,277.095238 Z M241.440762,288.065143 L245.411048,288.065143 L245.411048,292.330286 L242.256,292.333333 L241.440762,288.065143 Z M252.112762,288.065143 L256.380952,288.065143 L256.380952,292.327238 L252.112762,292.330286 L252.112762,288.065143 Z M265.539048,292.327238 L263.086476,292.327238 L263.086476,288.065143 L267.36,288.065143 L267.36,290.506286 C267.36,291.508952 266.541714,292.327238 265.539048,292.327238 L265.539048,292.327238 Z" id="cart-copy"></path>
        </g>
    </g>
</svg>