<?xml version="1.0" encoding="UTF-8" standalone="no"?>
<svg width="37px" height="32px" viewBox="0 0 37 32" version="1.1" xmlns="http://www.w3.org/2000/svg" xmlns:xlink="http://www.w3.org/1999/xlink">
    <!-- Generator: Sketch 39 (31667) - http://www.bohemiancoding.com/sketch -->
    <title>cart</title>
    <desc>Created with Sketch.</desc>
    <defs></defs>
    <g id="Home" stroke="none" stroke-width="1" fill="none" fill-rule="evenodd">
        <g id="Guide-1366-HOME_1" transform="translate(-105.000000, -271.000000)" fill="#000000">
            <path d="M112.119238,275.874667 L111.613333,272.827048 L109.788571,272.827048 C109.518095,271.779429 108.57181,271 107.437333,271 C106.092571,271 105,272.092571 105,273.437333 C105,274.782857 106.092571,275.874667 107.437333,275.874667 C108.57181,275.874667 109.518095,275.095238 109.788571,274.047619 L110.577143,274.047619 L110.88419,275.874667 L110.865905,275.874667 L111,276.583238 L111,276.586286 L112.562667,284.737905 L113.196571,288.065143 L113.199619,288.065143 L114.014857,292.342476 C112.511619,292.455238 111.259048,293.613333 111.110476,295.071619 C111.023619,295.925714 111.303238,296.782857 111.88381,297.422857 C112.461333,298.062857 113.285714,298.428571 114.142857,298.428571 L115.360381,298.428571 C115.360381,300.446095 117.003048,302.086476 119.017524,302.086476 C121.03581,302.086476 122.675429,300.446095 122.675429,298.428571 L129.380952,298.428571 C129.380952,300.446095 131.020571,302.086476 133.038857,302.086476 C135.053333,302.086476 136.693714,300.446095 136.693714,298.428571 L139.134095,298.428571 C139.470095,298.428571 139.741333,298.155048 139.741333,297.818286 C139.741333,297.482286 139.470095,297.208 139.134095,297.208 L136.481905,297.208 C135.979048,295.791619 134.62819,294.770667 133.038857,294.770667 C131.449524,294.770667 130.097905,295.791619 129.592,297.208 L122.461333,297.208 C121.958476,295.791619 120.606857,294.770667 119.017524,294.770667 C117.42819,294.770667 116.077333,295.791619 115.574476,297.208 L114.142857,297.208 C113.630857,297.208 113.137143,296.98781 112.788952,296.60381 C112.434667,296.214476 112.270857,295.714667 112.32419,295.193524 C112.416381,294.273905 113.265143,293.553905 114.258667,293.553905 L114.770667,293.553905 L118.506286,293.550857 L125.112762,293.550857 L125.112762,293.54781 L136.086476,293.54781 L136.086476,293.544762 L138.539048,293.544762 C140.214476,293.544762 141.577524,292.181714 141.577524,290.506286 L141.577524,275.869333 L112.119238,275.874667 Z M107.437333,274.657905 C106.764571,274.657905 106.220571,274.110095 106.220571,273.437333 C106.220571,272.764571 106.764571,272.220571 107.437333,272.220571 C108.110095,272.220571 108.657905,272.764571 108.657905,273.437333 C108.657905,274.110095 108.110095,274.657905 107.437333,274.657905 L107.437333,274.657905 Z M133.038857,295.991238 C134.383619,295.991238 135.47619,297.083048 135.47619,298.428571 C135.47619,299.774095 134.383619,300.865905 133.038857,300.865905 C131.693333,300.865905 130.601524,299.774095 130.601524,298.428571 C130.601524,297.083048 131.693333,295.991238 133.038857,295.991238 L133.038857,295.991238 Z M119.017524,295.991238 C120.363048,295.991238 121.458667,297.083048 121.458667,298.428571 C121.458667,299.774095 120.363048,300.865905 119.017524,300.865905 C117.67581,300.865905 116.58019,299.774095 116.58019,298.428571 C116.58019,297.083048 117.67581,295.991238 119.017524,295.991238 L119.017524,295.991238 Z M140.36,281.363429 L136.086476,281.363429 L136.086476,277.089143 L140.36,277.086095 L140.36,281.363429 Z M130.601524,292.327238 L134.865905,292.327238 L134.865905,288.06819 L130.601524,288.06819 L130.601524,292.327238 Z M130.601524,286.848381 L134.865905,286.848381 L134.865905,282.58019 L130.601524,282.58019 L130.601524,286.848381 Z M119.62781,292.330286 L123.896,292.330286 L123.896,288.065143 L119.62781,288.065143 L119.62781,292.330286 Z M119.62781,286.848381 L123.896,286.848381 L123.896,282.58019 L119.62781,282.58019 L119.62781,286.848381 Z M113.390095,282.58019 L118.411048,282.58019 L118.411048,286.848381 L114.208381,286.848381 L113.390095,282.58019 Z M130.601524,281.363429 L134.865905,281.363429 L134.865905,277.095238 L130.601524,277.095238 L130.601524,281.363429 Z M129.380952,281.363429 L125.112762,281.363429 L125.112762,277.09219 L129.380952,277.089143 L129.380952,281.363429 Z M119.62781,281.363429 L123.896,281.363429 L123.896,277.095238 L119.62781,277.095238 L119.62781,281.363429 Z M125.112762,286.848381 L129.380952,286.848381 L129.380952,282.58019 L125.112762,282.58019 L125.112762,286.848381 Z M136.086476,286.848381 L140.350857,286.848381 L140.350857,282.58019 L136.086476,282.58019 L136.086476,286.848381 Z M118.411048,277.095238 L118.411048,281.363429 L113.157714,281.363429 L112.339429,277.095238 L118.411048,277.095238 Z M114.440762,288.065143 L118.411048,288.065143 L118.411048,292.330286 L115.256,292.333333 L114.440762,288.065143 Z M125.112762,288.065143 L129.380952,288.065143 L129.380952,292.327238 L125.112762,292.330286 L125.112762,288.065143 Z M138.539048,292.327238 L136.086476,292.327238 L136.086476,288.065143 L140.36,288.065143 L140.36,290.506286 C140.36,291.508952 139.541714,292.327238 138.539048,292.327238 L138.539048,292.327238 Z" id="cart"></path>
        </g>
    </g>
</svg>